<svg xmlns="http://www.w3.org/2000/svg" style="fill:#3d322c;" viewBox="0 0 32 32" id="fish"><path d="M24.52 16a5.28 5.28 0 0 0 1.82-4A1.33 1.33 0 0 0 25 10.69a5.32 5.32 0 0 0-4 1.85 10.56 10.56 0 0 0-4-2.16 4.79 4.79 0 0 0 .11-1 1.33 1.33 0 0 0-.39-.94 1.45 1.45 0 0 0-.94-.39 5.3 5.3 0 0 0-4.47 2.52 12.23 12.23 0 0 0-5.83 4.63 1.34 1.34 0 0 0 0 1.53 13.67 13.67 0 0 0 5.83 4.63 5.3 5.3 0 0 0 4.47 2.52 1.31 1.31 0 0 0 .93-.39 1.29 1.29 0 0 0 .39-.93 4.64 4.64 0 0 0-.11-1 10.73 10.73 0 0 0 4-2.17 5.32 5.32 0 0 0 4 1.85 1.31 1.31 0 0 0 1.32-1.32 5.26 5.26 0 0 0-1.82-4zm-16.65.66a.66.66 0 1 1 0-1.32.66.66 0 0 1 0 1.32zm0 0"></path></svg>