<svg xmlns="http://www.w3.org/2000/svg" style="fill:#3d322c;" viewBox="0 0 32 32" id="peanut"><path d="M20.53 15.94a4.85 4.85 0 0 1 .78-2.51 5.82 5.82 0 0 0-.87-7.26 5.7 5.7 0 0 0-7.82 0 5.81 5.81 0 0 0-.88 7.26 4.79 4.79 0 0 1 .78 2.57 4.73 4.73 0 0 1-.78 2.51 5.81 5.81 0 0 0 .88 7.26 5.68 5.68 0 0 0 7.82 0 5.82 5.82 0 0 0 .87-7.26 4.85 4.85 0 0 1-.78-2.56zm-6.13 7.83a.71.71 0 1 1 .71-.71.71.71 0 0 1-.71.71zm0-14.19a.71.71 0 1 1 .71-.71.71.71 0 0 1-.71.71zm2.13 11.35a.71.71 0 1 1 .71-.71.71.71 0 0 1-.71.71zm0-8.51a.71.71 0 1 1 .71-.71.71.71 0 0 1-.71.71zm2.13 11.35a.71.71 0 1 1 .71-.71.71.71 0 0 1-.71.71zm0-14.19a.71.71 0 1 1 .71-.71.71.71 0 0 1-.71.71zm0 0"></path></svg>